<svg enable-background="new 0 0 512 512" viewBox="0 0 512 512" xmlns="http://www.w3.org/2000/svg"><path d="m320.2 203.6v-29.3h-32.4v11.8h-11.3v-11.8h-41.1v11.8h-11.3v-11.8h-32.4v29.3c0 35.4 28.8 64.2 64.2 64.2s64.3-28.8 64.3-64.2z" fill="#fff"/><path d="m174.3 174.3v11.8c0 4.5 2.5 8.4 6.2 10.4v-22.2z" fill="#fff"/><path d="m156.9 156.9h198.3v6.2h-198.3z" fill="#75b4e2"/><path d="m320.2 145.6v-11.8c0-25.8-21-46.8-46.8-46.8h-34.9c-25.8 0-46.8 21-46.8 46.8v11.8z" fill="#75b4e2"/><path d="m331.5 196.6c3.7-2 6.2-5.9 6.2-10.4v-11.8h-6.2z" fill="#fff"/><path d="m241.3 314.4 4.4 5.8h20.6l4.4-5.8z" fill="#fbc749"/><path d="m261.6 397.8c1.9 1.6 3.1 4 3.1 6.6 0 4.8-3.9 8.7-8.7 8.7s-8.7-3.9-8.7-8.7c0-2.7 1.2-5 3.1-6.6v-7.3l-49.9-23.4v57.9h111v-57.8l-49.9 23.4z" fill="#e85558"/><path d="m200.5 354.7 55.5 26 55.5-26v-5.8h-111z" fill="#e85558"/><path d="m314.9 314.4-5.7 13.7-10.4-4.3 18.6-44.6h-29.6v31.2l-8.7 11.6v15.8h43.7v69.8h49.9v-29.3c-.1-33.3-25.1-60.7-57.8-63.9z" fill="#75b4e2"/><path d="m232.9 321.9-8.7-11.6v-31.2h-30.2l15 45-10.7 3.6-4.3-12.9c-31.3 4.7-54.6 31.4-54.6 63.5v29.3h49.8v-69.8h43.7z" fill="#75b4e2"/><path d="m244.2 331.5h23.7v6.2h-23.7z" fill="#fbc749"/><path d="m276.6 276.2c-6.5 1.9-13.4 2.9-20.6 2.9-7.1 0-14-1-20.6-2.9v26.9h41.1v-26.9z" fill="#fff"/><path d="m319.4 303.6 14.9-35.7h-38.7c20.2-12.5 34.1-34.2 35.7-59.3 10.1-2.5 17.6-11.6 17.6-22.4v-11.8h17.5v-28.7h-34.9v-11.8c0-32-26-58-58-58h-34.9c-32 0-58 26-58 58v11.8h-34.9v28.7h17.5v11.8c0 10.9 7.5 20 17.6 22.4 1.6 25 15.5 46.8 35.7 59.3h-38.1l12 36.1c-35.9 6.3-62.2 37.3-62.2 74.3v40.6h61.1v17.5h133.5v-17.5h61.1v-40.6c0-38-27.8-69.4-64.5-74.7zm18.3-117.4c0 4.5-2.5 8.4-6.2 10.4v-22.2h6.2zm-99.2-99.2h34.9c25.8 0 46.8 21 46.8 46.8v11.8h-128.4v-11.8c0-25.8 21-46.8 46.7-46.8zm-64.2 99.2v-11.8h6.2v22.2c-3.7-2-6.2-5.9-6.2-10.4zm-17.4-23.1v-6.2h198.3v6.2zm34.9 40.5v-29.3h32.4v11.8h11.3v-11.8h41.1v11.8h11.3v-11.8h32.4v29.3c0 35.4-28.8 64.2-64.2 64.2s-64.3-28.8-64.3-64.2zm74.5 116.6h-20.6l-4.4-5.8h29.3zm1.5 11.3v6.2h-23.7v-6.2zm-32.4-28.4v-26.9c6.5 1.9 13.4 2.9 20.6 2.9 7.1 0 14-1 20.6-2.9v26.9zm-46.2 104.4h-49.8v-29.3c0-32.1 23.2-58.8 54.6-63.5l4.3 12.9 10.7-3.6-15-45h30.2v31.2l8.7 11.6v15.8h-43.7zm122.3 17.5h-111v-57.8l49.9 23.4v7.3c-1.9 1.6-3.1 4-3.1 6.6 0 4.8 3.9 8.7 8.7 8.7s8.7-3.9 8.7-8.7c0-2.7-1.2-5-3.1-6.6v-7.3l49.9-23.4zm0-70.3-55.5 26-55.5-26v-5.8h111zm11.2 52.8v-69.8h-43.7v-15.8l8.7-11.6v-31.2h29.6l-18.6 44.6 10.4 4.3 5.7-13.7c32.6 3.3 57.7 30.6 57.7 63.9v29.3z" fill="#17171d"/></svg>